<svg width="78" height="84" viewBox="0 0 78 84" fill="none" xmlns="http://www.w3.org/2000/svg">
<path d="M47.7932 6.92827C47.8811 6.8177 47.9906 6.72615 48.1149 6.65921C48.2393 6.59226 48.376 6.5513 48.5167 6.53883C48.6574 6.52636 48.7992 6.54263 48.9334 6.58666C49.0676 6.63069 49.1914 6.70155 49.2974 6.79494L53.1391 10.1783L41.0557 25.2824H49.0557L57.8307 14.3158L64.7141 20.3866C64.9176 20.5665 65.0428 20.8187 65.0631 21.0896C65.0833 21.3604 64.997 21.6285 64.8224 21.8366L61.9474 25.2824H70.0474C71.0507 23.8136 71.4826 22.0286 71.2615 20.2636C71.0405 18.4986 70.1819 16.8752 68.8474 15.6991L53.4307 2.10327C52.687 1.44828 51.8176 0.951775 50.8755 0.644071C49.9335 0.336367 48.9386 0.223926 47.9516 0.313614C46.9647 0.403302 46.0064 0.693237 45.1352 1.16571C44.2641 1.63819 43.4984 2.28328 42.8849 3.0616L25.3766 25.2824H33.3349L47.7932 6.92827ZM9.85156 23.1991C9.02276 23.1991 8.2279 23.5283 7.64185 24.1144C7.0558 24.7004 6.72656 25.4953 6.72656 26.3241C6.72656 27.1529 7.0558 27.9478 7.64185 28.5338C8.2279 29.1199 9.02276 29.4491 9.85156 29.4491H64.0182C67.6097 29.4491 71.0541 30.8758 73.5936 33.4154C76.1332 35.9549 77.5599 39.3993 77.5599 42.9908V70.0741C77.5599 73.6656 76.1332 77.11 73.5936 79.6495C71.0541 82.1891 67.6097 83.6158 64.0182 83.6158H14.0182C10.4268 83.6158 6.98238 82.1891 4.44282 79.6495C1.90327 77.11 0.476563 73.6656 0.476562 70.0741V26.3241C0.476562 23.8377 1.46428 21.4531 3.22244 19.695C4.98059 17.9368 7.36516 16.9491 9.85156 16.9491H27.8516L22.8849 23.1991H9.85156ZM52.5599 57.5741C52.5599 59.2991 53.9599 60.6991 55.6849 60.6991H64.0182C64.847 60.6991 65.6419 60.3699 66.2279 59.7838C66.814 59.1978 67.1432 58.4029 67.1432 57.5741C67.1432 56.7453 66.814 55.9504 66.2279 55.3644C65.6419 54.7783 64.847 54.4491 64.0182 54.4491H55.6849C54.8561 54.4491 54.0612 54.7783 53.4752 55.3644C52.8891 55.9504 52.5599 56.7453 52.5599 57.5741Z" fill="#0B1D34"/>
</svg>
