<svg width="101" height="101" viewBox="0 0 101 101" fill="none" xmlns="http://www.w3.org/2000/svg">
<path d="M50.6891 8.7131C51.2051 8.06744 51.844 7.53054 52.5689 7.13347C53.2938 6.7364 54.0902 6.48705 54.9121 6.39986C55.7341 6.31267 56.5651 6.38937 57.3572 6.62552C58.1492 6.86167 58.8866 7.25257 59.5266 7.77561L79.9141 24.4256C81.0353 25.341 81.8039 26.6173 82.0889 28.0364C82.3739 29.4555 82.1574 30.9295 81.4766 32.2069C79.6941 31.6621 77.8404 31.3861 75.9766 31.3881H74.1016L75.9641 29.2631L65.2266 20.4944L56.3703 31.3944H48.3141L60.3828 16.5444L55.5703 12.6131L40.5828 31.3881H32.5828L50.6891 8.7131ZM66.6016 62.6381C65.7728 62.6381 64.9779 62.9673 64.3919 63.5534C63.8058 64.1394 63.4766 64.9343 63.4766 65.7631C63.4766 66.5919 63.8058 67.3868 64.3919 67.9728C64.9779 68.5589 65.7728 68.8881 66.6016 68.8881H72.8516C73.6804 68.8881 74.4752 68.5589 75.0613 67.9728C75.6473 67.3868 75.9766 66.5919 75.9766 65.7631C75.9766 64.9343 75.6473 64.1394 75.0613 63.5534C74.4752 62.9673 73.6804 62.6381 72.8516 62.6381H66.6016ZM19.7266 34.5131C19.7266 33.6843 20.0558 32.8894 20.6419 32.3034C21.2279 31.7173 22.0228 31.3881 22.8516 31.3881H26.3391L31.3078 25.1381H22.8516C20.3652 25.1381 17.9806 26.1258 16.2224 27.884C14.4643 29.6421 13.4766 32.0267 13.4766 34.5131V72.0131C13.4766 76.1571 15.1228 80.1314 18.053 83.0616C20.9833 85.9919 24.9576 87.6381 29.1016 87.6381H75.9766C79.2918 87.6381 82.4712 86.3211 84.8154 83.9769C87.1596 81.6327 88.4766 78.4533 88.4766 75.1381V50.1381C88.4766 46.8229 87.1596 43.6435 84.8154 41.2993C82.4712 38.9551 79.2918 37.6381 75.9766 37.6381H22.8516C22.0228 37.6381 21.2279 37.3089 20.6419 36.7228C20.0558 36.1368 19.7266 35.3419 19.7266 34.5131ZM19.7266 72.0131V43.3569C20.7016 43.7006 21.7578 43.8881 22.8516 43.8881H75.9766C77.6342 43.8881 79.2239 44.5466 80.396 45.7187C81.5681 46.8908 82.2266 48.4805 82.2266 50.1381V75.1381C82.2266 76.7957 81.5681 78.3854 80.396 79.5575C79.2239 80.7296 77.6342 81.3881 75.9766 81.3881H29.1016C26.6152 81.3881 24.2306 80.4004 22.4724 78.6422C20.7143 76.8841 19.7266 74.4995 19.7266 72.0131Z" fill="#0B1D34"/>
</svg>
