<svg width="126" height="126" viewBox="0 0 126 126" fill="none" xmlns="http://www.w3.org/2000/svg">
<rect width="125" height="125" transform="translate(0.349854 0.302734)" fill="white"/>
<path d="M34.6853 62.8972C34.7051 73.0416 32.3533 83.0502 27.8176 92.1243C27.5736 92.6154 27.1972 93.0286 26.7308 93.3172C26.2645 93.6058 25.7269 93.7584 25.1784 93.7578C24.6779 93.7567 24.1859 93.628 23.749 93.3838C23.312 93.1396 22.9446 92.788 22.6814 92.3623C22.4182 91.9365 22.2679 91.4506 22.2447 90.9506C22.2216 90.4506 22.3263 89.953 22.5491 89.5047C26.6782 81.2441 28.8183 72.1323 28.7987 62.8972C28.7891 57.7483 29.9421 52.6637 32.1717 48.0226C34.4014 43.3815 37.6502 39.3037 41.6757 36.0934C41.9775 35.8515 42.324 35.6714 42.6954 35.5634C43.0668 35.4554 43.4559 35.4217 43.8403 35.464C44.2248 35.5064 44.5971 35.6241 44.9361 35.8103C45.2751 35.9966 45.5741 36.2478 45.816 36.5496C46.0579 36.8514 46.238 37.1979 46.3459 37.5693C46.4539 37.9407 46.4877 38.3298 46.4453 38.7142C46.403 39.0987 46.2853 39.471 46.099 39.81C45.9128 40.149 45.6616 40.448 45.3598 40.6899C42.0226 43.3483 39.3292 46.7263 37.4808 50.5718C35.6324 54.4172 34.6768 58.6306 34.6853 62.8972ZM63.1374 59.9539C62.3568 59.9539 61.6081 60.264 61.0561 60.8159C60.5042 61.3679 60.1941 62.1166 60.1941 62.8972C60.1975 78.3524 56.2765 93.5555 48.7985 107.081C48.4199 107.764 48.3282 108.57 48.5434 109.32C48.7587 110.071 49.2634 110.706 49.9464 111.084C50.6295 111.463 51.4349 111.554 52.1856 111.339C52.9363 111.124 53.5707 110.619 53.9493 109.936C61.9093 95.5361 66.0835 79.3509 66.0807 62.8972C66.0807 62.1166 65.7706 61.3679 65.2186 60.8159C64.6666 60.264 63.918 59.9539 63.1374 59.9539ZM63.1374 44.2562C58.1935 44.2562 53.4521 46.2201 49.9562 49.716C46.4603 53.2119 44.4964 57.9533 44.4964 62.8972C44.4964 63.6778 44.8065 64.4264 45.3585 64.9784C45.9104 65.5304 46.6591 65.8405 47.4397 65.8405C48.2203 65.8405 48.969 65.5304 49.5209 64.9784C50.0729 64.4264 50.383 63.6778 50.383 62.8972C50.383 59.5145 51.7268 56.2704 54.1187 53.8785C56.5106 51.4866 59.7547 50.1428 63.1374 50.1428C66.52 50.1428 69.7642 51.4866 72.1561 53.8785C74.548 56.2704 75.8917 59.5145 75.8917 62.8972C75.9313 78.646 72.4608 94.2057 65.7324 108.445C65.5665 108.795 65.4712 109.174 65.452 109.561C65.4327 109.948 65.4898 110.335 65.6201 110.7C65.7504 111.065 65.9512 111.401 66.2112 111.688C66.4712 111.975 66.7852 112.208 67.1354 112.374C67.4855 112.54 67.8649 112.635 68.2518 112.655C68.6388 112.674 69.0257 112.617 69.3906 112.487C69.7555 112.356 70.0911 112.155 70.3784 111.895C70.6656 111.635 70.8988 111.321 71.0647 110.971C78.1647 95.9421 81.8247 79.519 81.7784 62.8972C81.7784 57.9533 79.8144 53.2119 76.3185 49.716C72.8227 46.2201 68.0813 44.2562 63.1374 44.2562ZM63.1374 12.8608C49.8713 12.8751 37.1527 18.1514 27.7721 27.5319C18.3916 36.9125 13.1153 49.6311 13.101 62.8972C13.1053 67.9097 12.256 72.8864 10.5894 77.6137C10.4496 77.9805 10.3847 78.3715 10.3983 78.7638C10.4119 79.1561 10.5038 79.5417 10.6686 79.8979C10.8334 80.2541 11.0678 80.5737 11.358 80.838C11.6482 81.1023 11.9884 81.3058 12.3584 81.4367C12.7284 81.5676 13.1209 81.6231 13.5127 81.6001C13.9046 81.577 14.2878 81.4758 14.64 81.3024C14.9921 81.129 15.306 80.887 15.5632 80.5905C15.8204 80.294 16.0157 79.949 16.1376 79.576C18.0291 74.2189 18.993 68.5784 18.9877 62.8972C18.9877 51.1879 23.6391 39.9583 31.9188 31.6786C40.1985 23.3989 51.4281 18.7475 63.1374 18.7475C74.8466 18.7475 86.0763 23.3989 94.3559 31.6786C102.636 39.9583 107.287 51.1879 107.287 62.8972C107.287 71.9279 106.412 80.9374 104.672 89.7991C104.521 90.5647 104.68 91.3592 105.114 92.0077C105.548 92.6562 106.222 93.1058 106.988 93.2575C107.177 93.292 107.369 93.31 107.562 93.3114C108.243 93.3106 108.903 93.0735 109.429 92.6406C109.955 92.2076 110.315 91.6056 110.446 90.9371C112.262 81.701 113.176 72.3102 113.174 62.8972C113.158 49.6315 107.881 36.9136 98.5012 27.5333C89.1209 18.1531 76.4031 12.8764 63.1374 12.8608ZM46.4586 75.7153C45.6936 75.5606 44.8985 75.716 44.2481 76.1475C43.5977 76.5789 43.1453 77.251 42.9904 78.016C41.376 85.9505 38.4868 93.571 34.4352 100.581C34.2419 100.916 34.1165 101.286 34.0662 101.67C34.0158 102.053 34.0415 102.443 34.1417 102.816C34.2419 103.19 34.4147 103.54 34.6502 103.847C34.8857 104.153 35.1794 104.411 35.5144 104.604C35.8494 104.797 36.2191 104.923 36.6026 104.973C36.986 105.023 37.3756 104.998 37.7492 104.897C38.1227 104.797 38.4728 104.624 38.7796 104.389C39.0863 104.153 39.3436 103.86 39.5369 103.525C43.9074 95.958 47.0219 87.7326 48.7593 79.1688C48.9097 78.406 48.7521 77.6147 48.3211 76.9676C47.89 76.3206 47.2205 75.8704 46.4586 75.7153ZM63.1374 28.5585C61.7025 28.558 60.269 28.6465 58.845 28.8234C58.0703 28.9203 57.3658 29.3211 56.8865 29.9374C56.4072 30.5538 56.1923 31.3354 56.2893 32.1101C56.3862 32.8849 56.7869 33.5894 57.4033 34.0687C58.0197 34.548 58.8012 34.7628 59.576 34.6659C63.5815 34.1605 67.6488 34.5134 71.5074 35.7011C75.3661 36.8888 78.9278 38.8842 81.9559 41.5545C84.984 44.2248 87.4091 47.509 89.0701 51.1888C90.731 54.8687 91.5898 58.8599 91.5894 62.8972C91.5901 68.0235 91.2723 73.1449 90.6377 78.2318C90.542 79.0058 90.7574 79.7862 91.2366 80.4015C91.7158 81.0169 92.4196 81.4168 93.1935 81.5136C93.3161 81.5206 93.4389 81.5206 93.5614 81.5136C94.2788 81.5131 94.9713 81.2506 95.5088 80.7755C96.0463 80.3003 96.3917 79.6452 96.4802 78.9333C97.1407 73.6134 97.4732 68.2579 97.476 62.8972C97.4656 53.7932 93.8445 45.065 87.407 38.6275C80.9695 32.19 72.2414 28.5689 63.1374 28.5585ZM91.3147 91.4473C90.9404 91.3506 90.5508 91.3287 90.168 91.3826C89.7852 91.4365 89.4168 91.5654 89.0838 91.7617C88.7508 91.958 88.4597 92.218 88.2272 92.5269C87.9948 92.8357 87.8254 93.1873 87.7288 93.5616C87.0077 96.3774 86.1688 99.198 85.2466 101.945C84.9981 102.685 85.0538 103.494 85.4016 104.193C85.7493 104.892 86.3606 105.425 87.1009 105.673C87.8411 105.922 88.6498 105.866 89.349 105.518C90.0482 105.171 90.5806 104.559 90.829 103.819C91.8102 100.935 92.6686 97.9815 93.429 95.0283C93.6227 94.2731 93.5089 93.4719 93.1125 92.8005C92.7161 92.1291 92.0695 91.6425 91.3147 91.4473Z" fill="black"/>
</svg>
