<svg width="41" height="40" viewBox="0 0 41 40" fill="none" xmlns="http://www.w3.org/2000/svg">
<path d="M9.67203 20C9.67988 24.039 8.74352 28.0239 6.93765 31.6367C6.84049 31.8323 6.69062 31.9968 6.50496 32.1117C6.3193 32.2266 6.10522 32.2874 5.88687 32.2871C5.68758 32.2867 5.4917 32.2354 5.31773 32.1382C5.14377 32.041 4.99747 31.901 4.89267 31.7315C4.78788 31.562 4.72804 31.3685 4.71883 31.1694C4.70961 30.9704 4.75131 30.7722 4.84 30.5938C6.48398 27.3048 7.33609 23.6769 7.32828 20C7.32443 17.95 7.7835 15.9255 8.67123 14.0777C9.55897 12.2299 10.8525 10.6063 12.4552 9.32812C12.5754 9.23181 12.7134 9.16011 12.8612 9.11712C13.0091 9.07412 13.164 9.06068 13.3171 9.07754C13.4701 9.09441 13.6184 9.14126 13.7534 9.21542C13.8883 9.28958 14.0074 9.3896 14.1037 9.50977C14.2 9.62993 14.2717 9.76789 14.3147 9.91576C14.3577 10.0636 14.3711 10.2185 14.3543 10.3716C14.3374 10.5247 14.2905 10.6729 14.2164 10.8079C14.1422 10.9429 14.0422 11.0619 13.922 11.1582C12.5933 12.2166 11.521 13.5616 10.785 15.0927C10.0491 16.6237 9.66863 18.3013 9.67203 20ZM21.0002 18.8281C20.6894 18.8281 20.3913 18.9516 20.1715 19.1714C19.9517 19.3911 19.8283 19.6892 19.8283 20C19.8296 26.1535 18.2685 32.2066 15.2912 37.5918C15.1404 37.8638 15.1039 38.1844 15.1896 38.4833C15.2753 38.7822 15.4762 39.0348 15.7482 39.1855C16.0202 39.3363 16.3408 39.3728 16.6397 39.2871C16.9386 39.2014 17.1912 39.0005 17.3419 38.7285C20.5112 32.9951 22.1731 26.551 22.172 20C22.172 19.6892 22.0486 19.3911 21.8288 19.1714C21.609 18.9516 21.311 18.8281 21.0002 18.8281ZM21.0002 12.5781C19.0317 12.5781 17.144 13.3601 15.7521 14.7519C14.3602 16.1438 13.5783 18.0316 13.5783 20C13.5783 20.3108 13.7017 20.6089 13.9215 20.8286C14.1413 21.0484 14.4394 21.1719 14.7502 21.1719C15.061 21.1719 15.359 21.0484 15.5788 20.8286C15.7986 20.6089 15.922 20.3108 15.922 20C15.922 18.6532 16.457 17.3616 17.4094 16.4092C18.3617 15.4569 19.6534 14.9219 21.0002 14.9219C22.347 14.9219 23.6386 15.4569 24.5909 16.4092C25.5433 17.3616 26.0783 18.6532 26.0783 20C26.094 26.2704 24.7122 32.4654 22.0334 38.1348C21.9673 38.2742 21.9294 38.4252 21.9217 38.5793C21.914 38.7333 21.9368 38.8874 21.9886 39.0327C22.0405 39.178 22.1205 39.3116 22.224 39.426C22.3275 39.5403 22.4525 39.6332 22.5919 39.6992C22.7313 39.7653 22.8824 39.8032 23.0365 39.8109C23.1905 39.8186 23.3446 39.7958 23.4899 39.7439C23.6351 39.6921 23.7688 39.6121 23.8831 39.5086C23.9975 39.4051 24.0904 39.28 24.1564 39.1406C26.9833 33.1568 28.4405 26.618 28.422 20C28.422 18.0316 27.6401 16.1438 26.2482 14.7519C24.8563 13.3601 22.9686 12.5781 21.0002 12.5781ZM21.0002 0.078125C15.7183 0.0838119 10.6544 2.18454 6.91954 5.91939C3.1847 9.65423 1.08397 14.7181 1.07828 20C1.07998 21.9957 0.741817 23.9772 0.0782791 25.8594C0.0226317 26.0054 -0.00324594 26.1611 0.00216847 26.3173C0.00758287 26.4734 0.0441803 26.627 0.109807 26.7688C0.175434 26.9106 0.268764 27.0379 0.384307 27.1431C0.499849 27.2483 0.63527 27.3294 0.782601 27.3815C0.929932 27.4336 1.0862 27.4557 1.2422 27.4465C1.3982 27.4373 1.55079 27.397 1.69099 27.328C1.83119 27.259 1.95617 27.1626 2.05857 27.0446C2.16097 26.9265 2.23873 26.7892 2.28726 26.6406C3.04039 24.5077 3.42415 22.262 3.42203 20C3.42203 15.338 5.274 10.8669 8.57054 7.57039C11.8671 4.27385 16.3381 2.42188 21.0002 2.42188C25.6622 2.42188 30.1332 4.27385 33.4298 7.57039C36.7263 10.8669 38.5783 15.338 38.5783 20C38.5784 23.5956 38.2297 27.1827 37.5373 30.7109C37.477 31.0158 37.5402 31.3321 37.7131 31.5903C37.886 31.8485 38.1543 32.0275 38.4591 32.0879C38.5345 32.1016 38.611 32.1088 38.6877 32.1094C38.9589 32.1091 39.2216 32.0147 39.4311 31.8423C39.6405 31.6699 39.7836 31.4302 39.8361 31.1641C40.5592 27.4867 40.9229 23.7478 40.922 20C40.9158 14.7183 38.8149 9.65469 35.0802 5.91996C31.3455 2.18523 26.2819 0.0843278 21.0002 0.078125ZM14.3595 25.1035C14.0549 25.0419 13.7384 25.1038 13.4794 25.2756C13.2205 25.4474 13.0403 25.715 12.9787 26.0195C12.3359 29.1786 11.1856 32.2127 9.57242 35.0039C9.49547 35.1373 9.44555 35.2845 9.4255 35.4372C9.40545 35.5898 9.41567 35.745 9.45557 35.8937C9.49547 36.0424 9.56427 36.1818 9.65805 36.3039C9.75182 36.4261 9.86873 36.5285 10.0021 36.6055C10.1355 36.6824 10.2827 36.7323 10.4354 36.7524C10.588 36.7724 10.7432 36.7622 10.8919 36.7223C11.0406 36.6824 11.18 36.6136 11.3021 36.5198C11.4243 36.4261 11.5267 36.3092 11.6037 36.1758C13.3438 33.1631 14.5838 29.8882 15.2755 26.4785C15.3354 26.1748 15.2727 25.8597 15.1011 25.6021C14.9294 25.3445 14.6629 25.1653 14.3595 25.1035ZM21.0002 6.32812C20.4289 6.32793 19.8581 6.36315 19.2912 6.43359C18.9827 6.47219 18.7022 6.63173 18.5114 6.87714C18.3205 7.12255 18.235 7.43372 18.2736 7.74219C18.3122 8.05066 18.4717 8.33116 18.7171 8.52199C18.9625 8.71283 19.2737 8.79836 19.5822 8.75976C21.177 8.55856 22.7964 8.69906 24.3327 9.17195C25.869 9.64483 27.2871 10.4393 28.4927 11.5024C29.6983 12.5656 30.6639 13.8732 31.3252 15.3384C31.9865 16.8035 32.3284 18.3925 32.3283 20C32.3286 22.041 32.202 24.0801 31.9494 26.1055C31.9113 26.4136 31.997 26.7243 32.1878 26.9693C32.3786 27.2143 32.6588 27.3736 32.9669 27.4121C33.0157 27.4149 33.0646 27.4149 33.1134 27.4121C33.3991 27.4119 33.6748 27.3074 33.8888 27.1182C34.1028 26.929 34.2403 26.6682 34.2755 26.3848C34.5385 24.2667 34.6709 22.1344 34.672 20C34.6679 16.3753 33.2261 12.9002 30.6631 10.3371C28.1 7.77401 24.6249 6.33226 21.0002 6.32812ZM32.2189 31.3672C32.0699 31.3287 31.9147 31.3199 31.7623 31.3414C31.6099 31.3629 31.4633 31.4142 31.3307 31.4924C31.1981 31.5705 31.0822 31.674 30.9896 31.797C30.8971 31.92 30.8296 32.06 30.7912 32.209C30.5041 33.3301 30.1701 34.4531 29.8029 35.5469C29.7039 35.8416 29.7261 36.1636 29.8646 36.442C30.0031 36.7203 30.2464 36.9323 30.5412 37.0312C30.8359 37.1302 31.1579 37.108 31.4363 36.9695C31.7146 36.8311 31.9266 36.5877 32.0255 36.293C32.4162 35.1445 32.758 33.9688 33.0607 32.793C33.1378 32.4923 33.0925 32.1733 32.9347 31.906C32.7769 31.6387 32.5194 31.4449 32.2189 31.3672Z" fill="black"/>
</svg>
