<svg width="88" height="101" viewBox="0 0 88 101" fill="none" xmlns="http://www.w3.org/2000/svg">
<path d="M44.5682 10.1384C41.7594 10.1384 39.4901 12.4077 39.4901 15.2166V18.2634C27.9057 20.6121 19.1776 30.8635 19.1776 43.1462V46.1296C19.1776 53.5881 16.4323 60.7927 11.4811 66.3787L10.3068 67.6958C8.97377 69.1875 8.65639 71.3298 9.46571 73.1548C10.275 74.9797 12.1 76.1541 14.0995 76.1541H75.037C77.0365 76.1541 78.8456 74.9797 79.6708 73.1548C80.496 71.3298 80.1627 69.1875 78.8297 67.6958L77.6554 66.3787C72.7042 60.7927 69.9589 53.604 69.9589 46.1296V43.1462C69.9589 30.8635 61.2308 20.6121 49.6464 18.2634V15.2166C49.6464 12.4077 47.3771 10.1384 44.5682 10.1384ZM51.757 88.4209C53.6613 86.5166 54.7245 83.9299 54.7245 81.2322H44.5682H34.412C34.412 83.9299 35.4752 86.5166 37.3795 88.4209C39.2838 90.3252 41.8705 91.3884 44.5682 91.3884C47.266 91.3884 49.8527 90.3252 51.757 88.4209Z" fill="#042645"/>
</svg>
