<svg width="88" height="101" viewBox="0 0 88 101" fill="none" xmlns="http://www.w3.org/2000/svg">
<path d="M40.7822 12.656C40.7822 11.2595 41.9248 10.1169 43.3213 10.1169C44.7178 10.1169 45.8604 11.2595 45.8604 12.656V15.322C58.6985 16.5916 68.7119 27.4143 68.7119 40.5857V45.2036C68.7119 52.1384 71.4731 58.7876 76.3767 63.707L76.821 64.1514C78.1382 65.4685 78.884 67.2617 78.884 69.1184C78.884 73.0063 75.7419 76.1484 71.854 76.1484L14.8044 76.1326C10.9165 76.1326 7.77441 72.9905 7.77441 69.1025C7.77441 67.2459 8.52026 65.4526 9.8374 64.1355L10.2817 63.6912C15.1694 58.7876 17.9307 52.1384 17.9307 45.2036V40.5857C17.9307 27.4143 27.9441 16.5916 40.7822 15.322V12.656ZM43.3213 20.2732C32.1018 20.2732 23.0088 29.3662 23.0088 40.5857V45.2036C23.0088 53.4873 19.7239 61.4377 13.8523 67.2935L13.4238 67.7219C13.0588 68.0869 12.8525 68.5789 12.8525 69.1025C12.8525 70.1816 13.7253 71.0544 14.8044 71.0544H71.8381C72.9172 71.0544 73.79 70.1816 73.79 69.1025C73.79 68.5789 73.5837 68.0869 73.2188 67.7219L72.7744 67.2776C66.9187 61.4219 63.6179 53.4714 63.6179 45.1877V40.5698C63.6179 29.3503 54.5249 20.2573 43.3054 20.2573L43.3213 20.2732ZM38.5288 82.9087C39.2271 84.8765 41.1155 86.2888 43.3213 86.2888C45.5271 86.2888 47.4155 84.8765 48.1138 82.9087C48.574 81.5916 50.0339 80.8933 51.3511 81.3535C52.6682 81.8137 53.3665 83.2737 52.9062 84.5908C51.5098 88.5422 47.7488 91.3669 43.3213 91.3669C38.8938 91.3669 35.1328 88.5422 33.7363 84.5908C33.2761 83.2737 33.9585 81.8137 35.2915 81.3535C36.6245 80.8933 38.0686 81.5757 38.5288 82.9087Z" fill="black"/>
</svg>
