<svg width="108" height="102" viewBox="0 0 108 102" fill="none" xmlns="http://www.w3.org/2000/svg">
<path d="M40.3138 0.813477L33.6324 11.9821L26.951 23.1442H13.5947L20.2761 11.9821L26.951 0.820066H26.9576L40.3138 0.813477Z" fill="#205295"/>
<path d="M93.7603 90.1293L87.0855 101.278H87.0723H73.7227L87.0789 78.9607L87.0855 78.9541H100.435L100.442 78.9607L93.7603 90.1293Z" fill="#205295"/>
<path d="M80.4044 0.813477L73.723 11.9755V11.9821L67.0416 23.1442H53.6787L60.3601 11.9821V11.9755L67.0416 0.813477H80.3978H80.4044Z" fill="#205295"/>
<path d="M87.0857 78.9623V78.9491L80.4043 67.7936L73.7294 56.6316L67.0546 45.4695L60.3732 34.3075L47.0169 11.9833L40.3355 0.821289L33.6541 11.9833L26.9727 23.1454L33.6607 34.3009L40.3421 45.4629L47.0169 56.625H47.0235L53.6983 67.7871L60.3732 78.9491H60.3798L67.0678 90.1112V90.1244L73.736 101.28H73.7492L87.1054 78.9623H87.0857Z" fill="#205295"/>
<path d="M107.124 45.4744L100.449 34.3123L93.7745 23.1503L87.0997 11.9882L80.4249 0.826172L73.75 11.9882L67.0752 23.1503L73.75 34.3123H73.7566L80.4315 45.4744H80.438L87.1129 56.6365H87.1261V56.6496L93.7943 67.8051H93.8075L100.482 56.6496V56.6365H100.489L107.164 45.481L107.124 45.4744Z" fill="#205295"/>
<path d="M40.3144 67.7918V67.7984L33.6395 78.9538L33.6329 78.9604L26.9581 90.1225H26.9449L20.2701 78.9604L13.5887 67.7984L6.90725 56.6363L0.232422 45.4743L6.91384 34.3056L13.5887 23.1436H13.5953L20.2701 34.3056L26.9515 45.4743H26.9581L33.6329 56.6297V56.6363L40.3144 67.7918Z" fill="#205295"/>
<path d="M53.6771 67.7939V67.8005L46.9957 78.956V78.9626L40.3143 90.1247H26.958L40.3143 67.8005V67.7939H53.6771Z" fill="#205295"/>
</svg>
